<svg xmlns="http://www.w3.org/2000/svg" width="32" height="32" viewBox="0 0 32 32">
  <!-- 배경 원 -->
  <circle cx="16" cy="16" r="16" fill="#E53E3E"/>
  
  <!-- 내부 원 -->
  <circle cx="16" cy="16" r="13" fill="#FFF" opacity="0.1"/>
  
  <!-- 화면 베젤 -->
  <rect x="6" y="8" width="20" height="16" rx="2" fill="#2D3748" stroke="#FFF" stroke-width="0.5"/>
  
  <!-- 화면 -->
  <rect x="7" y="9" width="18" height="14" rx="1" fill="#FFF"/>
  
  <!-- 터치 포인트 -->
  <circle cx="16" cy="16" r="2" fill="#E53E3E"/>
  <circle cx="16" cy="16" r="1.5" fill="#FFF"/>
  
  <!-- 메뉴 아이콘들 -->
  <rect x="9" y="11" width="3" height="2" rx="0.5" fill="#E53E3E" opacity="0.7"/>
  <rect x="20" y="11" width="3" height="2" rx="0.5" fill="#E53E3E" opacity="0.7"/>
  <rect x="9" y="19" width="3" height="2" rx="0.5" fill="#E53E3E" opacity="0.7"/>
  <rect x="20" y="19" width="3" height="2" rx="0.5" fill="#E53E3E" opacity="0.7"/>
  
  <!-- 햄버거 아이콘 (단순화) -->
  <rect x="11" y="13" width="2" height="0.5" rx="0.25" fill="#8B4513"/>
  <rect x="11" y="14" width="2" height="0.5" rx="0.25" fill="#228B22"/>
  <rect x="11" y="15" width="2" height="0.5" rx="0.25" fill="#8B4513"/>
  
  <!-- 음료 아이콘 (단순화) -->
  <rect x="19" y="13" width="1" height="3" rx="0.5" fill="#4A90E2"/>
  <rect x="19.2" y="12.5" width="0.6" height="0.5" rx="0.3" fill="#4A90E2"/>
</svg>